<?xml version="1.0" encoding="iso-8859-1"?><svg xmlns="http://www.w3.org/2000/svg" xmlns:xlink="http://www.w3.org/1999/xlink"><symbol viewBox="0 0 512 512" id="armenia" xmlns="http://www.w3.org/2000/svg"><path fill="#0052b4" d="M0 85.337h512v341.326H0z"/><path fill="#d80027" d="M0 85.337h512v113.775H0z"/><path fill="#ff9811" d="M0 312.888h512v113.775H0z"/></symbol><symbol viewBox="0 0 512 512" id="back" xmlns="http://www.w3.org/2000/svg"><path d="M256 0C114.608 0 0 114.608 0 256c0 141.376 114.608 256 256 256s256-114.624 256-256C512 114.608 397.392 0 256 0z" fill="#e8e8e8"/><path d="M313.344 432.064L149.984 272l163.36-160.064 48.8 49.968L249.792 272l112.352 110.096z" opacity=".2"/><path fill="#fff" d="M297.344 416.064L133.984 256l163.36-160.064 48.8 49.968L233.792 256l112.352 110.096z"/></symbol><symbol viewBox="0 0 512 512" id="belarus" xmlns="http://www.w3.org/2000/svg"><path d="M503.172 423.724H8.828A8.829 8.829 0 010 414.896v-79.448h512v79.448a8.828 8.828 0 01-8.828 8.828z" fill="#73af00"/><path d="M503.172 88.276H8.828A8.829 8.829 0 000 97.104v238.344h512V97.104a8.829 8.829 0 00-8.828-8.828z" fill="#ff4b55"/><path d="M70.621 423.724H8.828A8.829 8.829 0 010 414.896V97.104a8.829 8.829 0 018.828-8.828h61.793v335.448z" fill="#f5f5f5"/><path d="M8.833 409.063h3.122v-8.75H8.833v8.75zm24.918 0h3.123v-8.75h-3.123v8.75zm24.934 0h3.108v-8.75h-3.108v8.75zm-37.377-23.46h3.091v-7.292h-3.091v7.292zm24.933 0h3.108v-7.292h-3.108v7.292zM8.833 366.581h3.122v-8.75H8.833v8.75zm24.918 0h3.123v-8.75h-3.123v8.75zm24.934 0h3.108v-8.75h-3.108v8.75zm-43.591 11.73h3.091v-7.357h3.123v-7.292h3.091v7.292h3.139v7.357h3.091v7.292h-3.091v7.354h-3.139v7.354h-3.091v-7.354h-3.123v-7.354h-3.091v-7.292zm24.919 0h3.122v-7.357h3.107v-7.292h3.108v7.292h3.107v7.357h3.122v7.292h-3.122v7.354H49.35v7.354h-3.108v-7.354h-3.107v-7.354h-3.122v-7.292zm6.228-29.294v7.292h-3.137v7.354h-3.091v7.292h-3.139v7.357h-3.123v-7.357h-3.123v-7.292h-3.091v-7.354h-3.139v-7.292h-3.091v7.292h-3.123v7.354h-3.091v7.292h-3.139v7.357H8.833v7.292h3.122v7.354h3.139v7.354h3.091v7.292h3.123v7.293h3.123v-7.293h3.107v-7.292h3.091v-7.354h3.123v-7.354h3.123v7.354h3.139v7.354h3.122v7.292h3.107v7.293h3.108v-7.293h3.107v-7.292h3.122v-7.354h3.123v-7.354h3.091v-7.292h-3.108v-7.357H55.58v-7.292h-3.122v-7.354h-3.107v-7.292h-3.11zm7.72-7.29h1.554v-2.916h1.569v2.916h1.569v2.915h-1.569v2.98h-1.569v-2.98h-1.554v-2.915zm0-10.21v4.313h-1.537v4.438h-1.569v5.834h1.569v4.374h1.537v4.374h4.693v-4.374h1.554v-4.374h1.537v-5.834h-1.537v-4.438h-1.554v-4.313h-4.693zm-42.006 10.145h1.569v-2.915h1.569v2.915h1.521v2.98h-1.521v2.916h-1.569v-2.916h-1.569v-2.98zm0-10.209v4.376h-1.554v4.374H8.833v5.897h1.568v4.374h1.554v4.374h4.66v-4.374h1.569V346.1h1.523v-5.897h-1.523v-4.374h-1.569v-4.376h-4.66zm17.135 10.209h1.537v-2.915h1.586v2.915h1.537v2.98h-1.537v2.916h-1.586v-2.916H29.09v-2.98zm7.784 0h1.569v-2.915h1.569v2.915h1.537v2.98h-1.537v2.916h-1.569v-2.916h-1.569v-2.98zm0-10.209v4.376h-3.123v-4.376h-4.66v4.376h-1.554v4.374h-1.569v5.897h1.569v4.374h1.554v4.374h4.66v-4.374h3.123v4.374h4.676v-4.374h1.585V346.1h1.523v-5.897h-1.523v-4.374H41.55v-4.376h-4.676zm-28.041-2.98h3.122v-8.749H8.833v8.749zm24.918 0h3.123v-8.749h-3.123v8.749zm24.934 0h3.108v-8.749h-3.108v8.749zM8.833 291.887h3.122v-5.832H8.833v5.832zm49.852 0h3.108v-5.832h-3.108v5.832zm-24.934-20.48h3.123v-7.292h-3.123v7.292zM8.833 251.626v8.811h3.122v-8.811H8.833zm17.134 0v8.811h3.123v-8.811h-3.123zm15.583 0v8.811h3.107v-8.811H41.55zm17.135 0v8.811h3.108v-8.811h-3.108zm-20.242-5.135v2.916h-1.569v2.219h-3.123v-2.219h-1.537v-2.916h-3.123v4.374h1.537v2.219h1.586v5.833h-1.586v2.219h-1.537v4.374h3.123v-2.915h1.537v-2.157h3.123v2.157h1.569v2.915h3.107v-4.374h-1.537v-2.219h-1.569v-5.833h1.569v-2.219h1.537v-4.374h-3.107zm-4.692 1.456h3.123v-7.292h-3.123v7.292zM8.833 226.008h3.122v-5.832H8.833v5.832zm49.852 0h3.108v-5.832h-3.108v5.832zM8.833 192.34h3.122v-8.812H8.833v8.812zm24.918 0h3.123v-8.812h-3.123v8.812zm24.934 0h3.108v-8.812h-3.108v8.812zm-37.377 63.787v-3.044h3.091v-5.073h3.139v-5.897h4.676v-6.91h1.537v-3.361h3.123v3.297h1.569v6.975h4.691v5.896h3.107v5.073h3.108v5.833h-3.108v5.199h-3.107v5.832h-4.691v6.912h-1.569v3.297h-3.123v-3.297h-1.537v-6.912h-4.676v-5.834h-3.139v-5.199h-3.091v-2.787zm24.933-81.413v7.354h-3.137v7.292h-3.091v7.357h-3.139v7.291h-3.123v-7.292h-3.123v-7.357h-3.091v-7.292h-3.139v-7.354h-3.091v7.354h-3.123v7.292h-3.123v7.357h-3.107v7.291H8.833v7.354h3.122v7.354h3.107v7.292h3.123v7.293h3.123v-7.293h3.091v-7.292h3.139v-7.354h-3.139v-8.814h3.139v5.897h3.091v11.731h1.586v7.228l-4.676.063v5.834H24.4v4.374h-3.091v7.354h-3.123v-7.354h-3.123V233.3h-3.107v-4.376H8.833v13.188h3.122v5.897h3.107v5.073h3.123V258.917h-3.123v5.199h-3.107v5.834H8.833v13.188h3.122v-4.439h3.107v-4.374h3.123v-7.292h3.123v7.292h3.091v4.374h3.139v5.897l4.676.063v7.228h-1.586v11.731h-3.091V309.515h-3.139v-8.877h3.139v-7.292h-3.139v-7.292h-3.091v-7.357h-3.123v7.357h-3.123v7.292h-3.107v7.292H8.833v7.354h3.122v7.292h3.139v7.357h3.091v7.354h3.123v7.292h3.091v-7.292h3.139v-7.354h3.091v-7.357h3.123v-7.292h3.123v7.292h3.139v7.357h3.122v7.354h3.107v7.292h3.108v-7.292h3.107v-7.354h3.122v-7.357h3.106v-7.292h3.107v-7.354h-3.108v-7.292h-3.106v-7.292h-3.122v-7.357H49.35v7.357h-3.108v7.292h-3.137v7.292h3.137v8.877h-3.137V303.618h-3.091v-11.731H38.445v-7.292h4.691v-5.897h3.107v-4.374h3.108v-7.292h3.107v7.292h3.122v4.374h3.123v4.439h3.091v-13.188h-3.092v-5.834h-3.123v-5.199h-3.122V253.084h3.122v-5.073h3.123v-5.897h3.092v-13.188h-3.092v4.376h-3.123v4.374h-3.122v7.354H49.35v-7.354h-3.108v-4.374h-3.107v-5.834H38.444v-7.292H40.013v-11.731h3.091v-5.897h3.137v8.813h-3.137v7.354h3.137v7.292h3.108v7.293h3.107v-7.293h3.122v-7.292h3.106v-7.354h3.11v-7.354h-3.108v-7.292H55.58v-7.357h-3.122v-7.292h-3.107v-7.354h-3.11v.002zm-34.286-7.292h1.539v-2.916h1.6v2.916h1.521v2.916h-1.521v2.98h-1.6v-2.98h-1.539v-2.916zm0-5.897h-1.554v4.438H8.833v5.834h1.568v4.438h1.554v4.376h4.66v-4.376h1.569v-4.438h1.523v-5.834h-1.523v-4.438h-1.569v-4.311h-4.66v4.311zm17.135 5.897h1.537v-2.916h1.586v2.916h1.537v2.916h-1.537v2.98h-1.586v-2.98H29.09v-2.916zm7.784 0h1.569v-2.916h1.569v2.916h1.537v2.916h-1.537v2.98h-1.569v-2.98h-1.569v-2.916zm-7.784-5.897h-1.554v4.438h-1.569v5.834h1.569v4.438h1.554v4.376h4.66v-4.376h3.123v4.376h4.676v-4.376h1.585v-4.438h1.523v-5.834h-1.523v-4.438h-1.585v-4.311h-4.676v4.311H33.75v-4.311h-4.66v4.311zm24.871 5.834h1.554v-2.854h1.569v2.854h1.569v2.98h-1.569v2.915h-1.569v-2.915h-1.554v-2.98zm0-10.208v4.374h-1.537v4.438h-1.569v5.834h1.569v4.374h1.537v4.376h4.693v-4.376h1.554v-4.374h1.537v-5.834h-1.537v-4.438h-1.554v-4.374h-4.693zm-45.128-2.917h3.122v-8.75H8.833v8.75zm24.918 0h3.123v-8.75h-3.123v8.75zm24.934 0h3.108v-8.75h-3.108v8.75zm-37.377-20.48h3.091v-7.357h-3.091v7.357zm24.933 0h3.108v-7.357h-3.108v7.357zM8.833 111.752h3.122v-8.75H8.833v8.75zm24.918 0h3.123v-8.75h-3.123v8.75zm24.934 0h3.108v-8.75h-3.108v8.75zm-43.591 14.646h3.091v-7.292h3.123v-7.354h3.091v7.354h3.139v7.292h3.091v7.357h-3.091v7.292h-3.139v7.354h-3.091v-7.354h-3.123v-7.292h-3.091v-7.357zm24.919 0h3.122v-7.292h3.107v-7.354h3.108v7.354h3.107v7.292h3.122v7.357h-3.122v7.292H49.35v7.354h-3.108v-7.354h-3.107v-7.292h-3.122v-7.357zm6.228-29.294v7.357h-3.107v7.292h-3.122v7.354h-3.139v7.292H33.75v-7.292h-3.123v-7.354h-3.091v-7.292H24.43v-7.357h-3.123v7.357h-3.123v7.292h-3.091v7.354h-3.139v7.292H8.833v7.357h3.122v7.292h3.139v7.354h3.091v7.354h3.123v7.292h3.091v-7.292h3.139v-7.354h3.091v-7.354h3.123v-7.292h3.123v7.292h3.139v7.354h3.091v7.354h3.137v7.292h3.108v-7.292h3.107v-7.354h3.122v-7.354h3.106v-7.292h3.108v-7.357h-3.092v-7.292h-3.123v-7.354h-3.122v-7.292h-3.107v-7.357h-3.108z" fill="#ff4b55"/></symbol><symbol viewBox="0 0 512 512" id="clean" xmlns="http://www.w3.org/2000/svg"><path d="M490.372 262.642a8.149 8.149 0 00-7.7-.687c-25.746 11.034-39.341 11.359-55.955 1.341-19.123-11.53-141.613-144.691-141.613-144.691-8.109-8.11-18.892-12.577-30.362-12.577-11.469 0-22.252 4.467-30.362 12.576l-43.43 43.431-28.825-28.826a8.153 8.153 0 00-11.529 11.53l28.825 28.825-37.664 37.664L20.685 100.16c-3.602-3.602-3.602-9.466 0-13.067l24.598-24.598c3.561-3.561 9.506-3.56 13.067.001l56.159 56.159a8.153 8.153 0 0011.529-11.53L69.88 50.965c-4.825-4.826-11.24-7.483-18.065-7.483-6.823 0-13.238 2.657-18.063 7.482L9.155 75.562c-9.96 9.96-9.96 26.166 0 36.127l111.071 111.07-43.429 43.429c-8.11 8.11-12.576 18.894-12.576 30.363 0 11.469 4.466 22.252 12.576 30.362 0 0 57.524 57.38 67.084 66.814 3.387 3.342 9.062 3.01 12.06-.671 2.615-3.211 2.338-8.031-.606-10.937-8.916-8.797-18.482-18.255-36.64-36.38l42.754-42.754 27.156 27.156c3.315 3.314 8.915 3.093 11.963-.469 2.733-3.192 2.535-8.094-.434-11.063l-27.154-27.155 34.882-34.882 45.059 45.059c3.316 3.314 8.915 3.093 11.963-.469 2.733-3.192 2.535-8.094-.434-11.063l-45.059-45.059 36.779-36.779 24.981 24.982c3.315 3.314 8.915 3.093 11.963-.469 2.733-3.192 2.535-8.094-.434-11.063l-24.98-24.979 35.713-35.713c10.829 11.854 20.791 22.865 29.649 32.658 39.943 44.156 64.051 70.808 85.234 83.581 20.329 12.258 38.255 11.49 58.695 4.414-1.945 16.423-7.582 32.726-15.021 48.024-.044.05-.091.096-.134.148-2.873 1.987-17.693 6.957-34.252 1.438-23.815-7.939-40.144-23.968-40.306-24.129a8.15 8.15 0 00-11.519.01 8.153 8.153 0 000 11.53c.766.765 19.071 18.859 46.669 28.059 7.006 2.335 14.179 3.317 20.908 3.317 2.644 0 5.214-.159 7.682-.439-13.239 21.672-28.705 40.071-39.738 52.047a8.145 8.145 0 00-2.513-.795c-5.389-.77-16.647-3.674-31.51-14.47-8.633-6.271-30.072-26.96-30.287-27.168a8.15 8.15 0 00-11.528.199 8.152 8.152 0 00.198 11.527c.913.884 22.482 21.696 32.036 28.635 12.029 8.737 22.374 13.258 30.374 15.572-12.564 11.695-31.731 25.789-54.102 36.749-4.575-1.822-14.615-6.62-27.224-17.453-11.192-9.617-25.072-22.935-25.211-23.068a8.153 8.153 0 00-11.527.233 8.15 8.15 0 00.232 11.527c.58.558 14.339 13.76 25.88 23.675 6.822 5.861 13.062 10.213 18.384 13.427a178.916 178.916 0 01-8.942 3.027c-27.423 8.452-66.085 12.55-94.552-15.919a17602.143 17602.143 0 00-34.762-34.682 8.153 8.153 0 00-11.497 11.562c8.73 8.68 19.781 19.701 34.73 34.651 17.955 17.954 40.857 27.039 67.51 27.038 13.542-.001 28.057-2.347 43.374-7.068 9.141-2.818 18.041-6.343 26.553-10.314a8.218 8.218 0 002.187-1.025c27.503-13.175 50.715-30.905 64.296-44.484 24.251-24.252 80.656-87.764 80.656-153.604a8.152 8.152 0 00-3.663-6.807zm-239.966-71.674l-.001.001-.001.001-143.245 143.245-18.832-18.833c-5.03-5.03-7.801-11.717-7.801-18.831s2.77-13.802 7.801-18.832l147.582-147.582c5.03-5.031 11.718-7.802 18.832-7.802 7.114 0 13.802 2.771 18.832 7.802l18.832 18.831-41.999 42z"/><path d="M220.524 45.44a70.937 70.937 0 01-7.796-7.796c-7.534-8.819-12.803-19.377-15.661-31.379a8.154 8.154 0 00-15.862 0c-2.858 12.002-8.127 22.56-15.66 31.378a70.781 70.781 0 01-7.797 7.797c-3.747 3.203-3.747 9.187 0 12.39a70.937 70.937 0 017.796 7.796c7.534 8.819 12.803 19.377 15.661 31.379a8.154 8.154 0 0015.862 0c2.858-12.002 8.127-22.56 15.66-31.378a70.781 70.781 0 017.797-7.797c3.747-3.205 3.747-9.187 0-12.39zm-20.196 9.596a87.32 87.32 0 00-11.193 16.65 87.348 87.348 0 00-14.259-20.051 86.078 86.078 0 003.067-3.401 87.32 87.32 0 0011.193-16.65 87.348 87.348 0 0014.259 20.051 86.155 86.155 0 00-3.067 3.401zM507.505 454.17a70.937 70.937 0 01-7.796-7.796c-7.534-8.819-12.803-19.377-15.661-31.379a8.154 8.154 0 00-15.862 0c-2.858 12.002-8.127 22.56-15.66 31.378a70.781 70.781 0 01-7.797 7.797c-3.747 3.205-3.747 9.187 0 12.39a70.937 70.937 0 017.796 7.796c7.534 8.819 12.803 19.377 15.661 31.379a8.154 8.154 0 0015.862 0c2.858-12.002 8.127-22.56 15.66-31.378a70.781 70.781 0 017.797-7.797c3.746-3.203 3.746-9.186 0-12.39zm-20.195 9.597a87.32 87.32 0 00-11.193 16.65 87.348 87.348 0 00-14.259-20.051 88.505 88.505 0 003.067-3.401 87.32 87.32 0 0011.193-16.65 87.348 87.348 0 0014.259 20.051 84.682 84.682 0 00-3.067 3.401zM142.257 454.17a70.937 70.937 0 01-7.796-7.796c-7.534-8.819-12.803-19.377-15.661-31.379a8.154 8.154 0 00-15.862 0c-2.858 12.002-8.127 22.56-15.66 31.378a70.781 70.781 0 01-7.797 7.797c-3.747 3.205-3.747 9.187 0 12.39a70.937 70.937 0 017.796 7.796c7.534 8.819 12.803 19.377 15.661 31.379a8.154 8.154 0 0015.862 0c2.858-12.002 8.127-22.56 15.66-31.378a70.781 70.781 0 017.797-7.797c3.746-3.203 3.746-9.186 0-12.39zm-20.196 9.597a87.32 87.32 0 00-11.193 16.65 87.348 87.348 0 00-14.259-20.051 88.505 88.505 0 003.067-3.401 87.32 87.32 0 0011.193-16.65 87.348 87.348 0 0014.259 20.051 85.45 85.45 0 00-3.067 3.401z"/></symbol><symbol viewBox="0 0 512.001 512.001" id="kazakhstan" xmlns="http://www.w3.org/2000/svg"><path d="M503.172 88.276H8.828A8.828 8.828 0 000 97.103v317.793a8.829 8.829 0 008.828 8.828h494.345a8.829 8.829 0 008.828-8.828V97.103a8.83 8.83 0 00-8.829-8.827z" fill="#82c3d2"/><g fill="#ffe15a"><path d="M59.516 128.447c-.799-3.383-.998-4.63.52-6.147a1.894 1.894 0 10-2.679-2.679c-3.072 3.073-2.339 6.262-1.544 9.639-2.422-.791-4.934-.204-6.28 1.494-.668.847-1.96 3.223.461 7.017a1.9 1.9 0 002.616.582 1.893 1.893 0 00.577-2.616c-.908-1.429-.935-2.31-.681-2.632.3-.381 1.23-.582 2.204-.237.629.218 2.091.973 2.091 3.253 0 1.821-.842 3.49-2.31 4.574-1.471 1.088-3.375 1.395-5.21.825-2.266-.692-3.849-3.079-3.849-5.806 0-1.951.418-3.923 1.186-5.651.122-.255 3.018-6.254 3.764-8.49 1.475-4.423-.024-6.647-1.047-7.576-1.369-1.247-3.37-1.558-5.092-.803-.262.116-.478.284-.705.44-.227-.157-.444-.324-.705-.44-1.721-.755-3.721-.444-5.092.803-1.023.929-2.522 3.154-1.047 7.576.746 2.236 3.641 8.235 3.737 8.435a14.153 14.153 0 011.212 5.707c0 2.728-1.582 5.114-3.849 5.806-1.842.569-3.74.266-5.21-.825a5.638 5.638 0 01-2.31-4.574c0-2.28 1.462-3.034 2.091-3.253.977-.344 1.902-.145 2.204.237.254.322.227 1.203-.681 2.632a1.893 1.893 0 103.193 2.034c2.42-3.794 1.129-6.169.461-7.017-1.347-1.698-3.858-2.285-6.28-1.494.796-3.375 1.528-6.566-1.544-9.639a1.894 1.894 0 10-2.679 2.679c1.517 1.517 1.32 2.764.52 6.147-.48 2.027-1.076 4.555-1.076 7.671 0 2.073.729 4.056 1.955 5.685h-.061a1.894 1.894 0 00-1.895 1.895c0 1.047.847 1.895 1.895 1.895h.061c-1.226 1.629-1.955 3.611-1.955 5.684 0 3.116.596 5.644 1.075 7.672.799 3.383.998 4.63-.52 6.147a1.894 1.894 0 102.68 2.679c3.072-3.073 2.339-6.263 1.544-9.639 2.422.788 4.934.204 6.28-1.494.668-.847 1.96-3.223-.461-7.017a1.893 1.893 0 10-3.193 2.034c.908 1.429.935 2.31.681 2.632-.301.377-1.227.577-2.204.237-.629-.218-2.091-.973-2.091-3.253 0-1.821.842-3.49 2.31-4.574 1.471-1.088 3.373-1.399 5.21-.825 2.266.692 3.849 3.079 3.849 5.806 0 1.951-.418 3.923-1.212 5.707L28.02 185.311a17.73 17.73 0 00-1.538 7.246c0 3.233 1.47 6.185 3.784 7.987-2.313 1.802-3.784 4.754-3.784 7.987 0 2.513.519 4.952 1.538 7.246l12.409 27.919a14.153 14.153 0 011.212 5.707c0 2.728-1.582 5.114-3.849 5.806-1.842.574-3.74.266-5.21-.825a5.638 5.638 0 01-2.31-4.574c0-2.28 1.462-3.034 2.091-3.253.977-.341 1.902-.145 2.204.237.254.322.227 1.203-.681 2.632a1.893 1.893 0 103.193 2.034c2.42-3.794 1.129-6.169.461-7.017-1.347-1.698-3.858-2.283-6.28-1.494.796-3.375 1.528-6.566-1.544-9.639a1.894 1.894 0 10-2.679 2.679c1.517 1.517 1.32 2.764.52 6.147-.479 2.028-1.075 4.556-1.075 7.672 0 2.073.729 4.056 1.955 5.685h-.061c-1.047 0-1.895.847-1.895 1.895s.847 1.895 1.895 1.895h.061c-1.227 1.629-1.955 3.611-1.955 5.685 0 3.116.596 5.644 1.075 7.672.799 3.383.998 4.63-.52 6.147a1.894 1.894 0 102.68 2.679c3.072-3.073 2.339-6.263 1.544-9.639 2.422.788 4.934.204 6.28-1.494.668-.847 1.96-3.223-.461-7.017a1.893 1.893 0 10-3.193 2.034c.908 1.429.935 2.31.681 2.632-.301.381-1.227.582-2.204.237-.629-.218-2.091-.973-2.091-3.253 0-1.821.842-3.49 2.31-4.574 1.471-1.088 3.373-1.399 5.21-.825 2.266.692 3.849 3.079 3.849 5.806 0 1.951-.418 3.923-1.212 5.707l-12.41 27.924a17.73 17.73 0 00-1.538 7.246c0 3.233 1.47 6.185 3.784 7.987-2.313 1.802-3.784 4.754-3.784 7.987 0 2.513.519 4.952 1.538 7.246l12.409 27.919a14.153 14.153 0 011.212 5.707c0 2.728-1.582 5.114-3.849 5.806-1.842.574-3.74.263-5.21-.825a5.638 5.638 0 01-2.31-4.574c0-2.28 1.462-3.034 2.091-3.253.977-.341 1.902-.145 2.204.237.254.322.227 1.203-.681 2.632a1.893 1.893 0 103.193 2.034c2.42-3.794 1.129-6.169.461-7.017-1.347-1.703-3.858-2.285-6.28-1.494.796-3.375 1.528-6.566-1.544-9.639a1.894 1.894 0 10-2.679 2.679c1.517 1.517 1.32 2.764.52 6.147-.479 2.028-1.075 4.555-1.075 7.671a9.513 9.513 0 003.802 7.58 9.513 9.513 0 00-3.802 7.58c0 3.116.596 5.644 1.075 7.672.799 3.382.998 4.63-.52 6.147a1.894 1.894 0 102.68 2.679c3.072-3.073 2.339-6.263 1.544-9.639 2.422.788 4.934.204 6.28-1.494.668-.847 1.96-3.223-.461-7.017a1.9 1.9 0 00-2.616-.582 1.893 1.893 0 00-.577 2.616c.908 1.429.935 2.31.681 2.632-.301.381-1.227.577-2.204.237-.629-.218-2.091-.973-2.091-3.253 0-1.821.842-3.49 2.31-4.574 1.471-1.088 3.373-1.395 5.21-.825 2.266.692 3.849 3.079 3.849 5.806 0 1.951-.418 3.923-1.186 5.651-.122.255-3.018 6.254-3.764 8.49-1.475 4.423.024 6.647 1.047 7.576a4.677 4.677 0 003.154 1.214c.653 0 1.315-.137 1.939-.41.262-.116.478-.284.705-.44.227.157.444.324.705.44.623.274 1.286.41 1.939.41a4.685 4.685 0 003.154-1.214c1.023-.929 2.522-3.154 1.047-7.576-.746-2.236-3.641-8.235-3.737-8.435a14.153 14.153 0 01-1.212-5.707c0-2.728 1.582-5.115 3.849-5.806 1.843-.57 3.74-.263 5.21.825a5.638 5.638 0 012.31 4.574c0 2.28-1.462 3.034-2.091 3.253-.973.341-1.905.145-2.204-.237-.254-.322-.227-1.203.681-2.632a1.893 1.893 0 00-.577-2.616 1.906 1.906 0 00-2.616.582c-2.42 3.794-1.129 6.169-.461 7.017 1.347 1.698 3.858 2.283 6.28 1.494-.796 3.375-1.528 6.566 1.544 9.639.37.37.855.555 1.34.555s.97-.185 1.34-.555c.74-.74.74-1.939 0-2.679-1.517-1.517-1.32-2.764-.52-6.147.479-2.028 1.075-4.556 1.075-7.672a9.513 9.513 0 00-3.802-7.58 9.512 9.512 0 003.802-7.58c0-3.116-.596-5.644-1.075-7.672-.799-3.382-.998-4.63.52-6.147a1.894 1.894 0 10-2.679-2.679c-3.072 3.073-2.339 6.262-1.544 9.639-2.422-.791-4.934-.209-6.28 1.494-.668.847-1.96 3.223.461 7.017a1.9 1.9 0 002.616.582 1.893 1.893 0 00.577-2.616c-.908-1.429-.935-2.31-.681-2.632.3-.381 1.23-.577 2.204-.237.629.218 2.091.973 2.091 3.253 0 1.821-.842 3.49-2.31 4.574-1.471 1.088-3.375 1.399-5.21.825-2.266-.692-3.849-3.079-3.849-5.806 0-1.951.418-3.923 1.212-5.707l12.409-27.919a17.73 17.73 0 001.538-7.246c0-3.233-1.47-6.185-3.784-7.987 2.313-1.802 3.784-4.754 3.784-7.987 0-2.513-.519-4.952-1.538-7.246l-12.408-27.917a14.153 14.153 0 01-1.212-5.707c0-2.728 1.582-5.114 3.849-5.806 1.843-.57 3.74-.263 5.21.825a5.638 5.638 0 012.31 4.574c0 2.28-1.462 3.034-2.091 3.253-.973.344-1.905.145-2.204-.237-.254-.322-.227-1.203.681-2.632a1.893 1.893 0 00-.577-2.616 1.906 1.906 0 00-2.616.582c-2.42 3.794-1.129 6.169-.461 7.017 1.347 1.698 3.858 2.283 6.28 1.494-.796 3.375-1.528 6.566 1.544 9.639.37.37.855.555 1.34.555s.97-.185 1.34-.555c.74-.74.74-1.939 0-2.679-1.517-1.517-1.32-2.764-.52-6.147.479-2.028 1.075-4.556 1.075-7.672 0-2.073-.729-4.056-1.955-5.685h.061a1.894 1.894 0 001.895-1.895 1.894 1.894 0 00-1.895-1.895h-.061c1.227-1.629 1.955-3.61 1.955-5.685 0-3.116-.596-5.644-1.075-7.672-.799-3.383-.998-4.63.52-6.147a1.894 1.894 0 10-2.679-2.679c-3.072 3.073-2.339 6.263-1.544 9.639-2.422-.788-4.934-.204-6.28 1.494-.668.847-1.96 3.223.461 7.017a1.902 1.902 0 002.616.582 1.893 1.893 0 00.577-2.616c-.908-1.429-.935-2.31-.681-2.632.3-.381 1.23-.577 2.204-.237.629.218 2.091.973 2.091 3.253 0 1.821-.842 3.49-2.31 4.574-1.471 1.088-3.375 1.395-5.21.825-2.266-.692-3.849-3.079-3.849-5.806 0-1.951.418-3.923 1.212-5.707l12.409-27.919a17.73 17.73 0 001.538-7.246c0-3.233-1.47-6.185-3.784-7.987 2.313-1.802 3.784-4.754 3.784-7.987 0-2.513-.519-4.952-1.538-7.246l-12.409-27.919a14.153 14.153 0 01-1.212-5.707c0-2.728 1.582-5.114 3.849-5.806 1.843-.57 3.74-.263 5.21.825a5.638 5.638 0 012.31 4.574c0 2.28-1.462 3.034-2.091 3.253-.973.341-1.905.14-2.204-.237-.254-.322-.227-1.203.681-2.632a1.893 1.893 0 00-.577-2.616 1.903 1.903 0 00-2.616.581c-2.42 3.794-1.129 6.169-.461 7.017 1.347 1.698 3.858 2.283 6.28 1.494-.796 3.375-1.528 6.566 1.544 9.639.37.37.855.555 1.34.555s.97-.185 1.34-.555c.74-.74.74-1.939 0-2.679-1.517-1.517-1.32-2.764-.52-6.147.479-2.028 1.075-4.556 1.075-7.672 0-2.073-.729-4.056-1.955-5.685h.061a1.894 1.894 0 001.895-1.895 1.894 1.894 0 00-1.895-1.895h-.061c1.227-1.629 1.955-3.61 1.955-5.685-.006-3.121-.602-5.649-1.08-7.677zm-19.23-8.075c-.673-2.02-.438-3.171.006-3.575.29-.274.73-.263 1.009-.137.342.152.342.393.342.511 0 1.047.847 1.895 1.895 1.895a1.894 1.894 0 001.895-1.895c0-.118 0-.359.342-.511.274-.126.711-.137 1.009.137.444.404.679 1.555.006 3.575-.49 1.465-2.263 5.279-3.251 7.349-.968-2.022-2.76-5.874-3.253-7.349zm3.251 78.185c.544.739 1.159 1.427 1.907 1.987-.748.561-1.363 1.248-1.907 1.987-.544-.739-1.159-1.427-1.907-1.987.748-.561 1.363-1.247 1.907-1.987zm0 113.692c.544.739 1.159 1.427 1.907 1.987-.748.561-1.363 1.248-1.907 1.987-.544-.739-1.159-1.427-1.907-1.987.748-.561 1.363-1.246 1.907-1.987zm3.25 82.16c.673 2.02.438 3.171-.006 3.575-.298.27-.735.259-1.009.137-.342-.152-.342-.392-.342-.511 0-1.047-.847-1.895-1.895-1.895s-1.895.847-1.895 1.895c0 .118 0 .359-.342.511-.278.122-.718.134-1.009-.137-.444-.404-.679-1.555-.006-3.575.49-1.465 2.263-5.279 3.251-7.349.968 2.021 2.76 5.874 3.253 7.349zm-1.361-23.327a9.406 9.406 0 00-1.889 1.981 9.405 9.405 0 00-1.889-1.981 9.406 9.406 0 001.889-1.981 9.356 9.356 0 001.889 1.981zm10.162-43.153l-12.052 27.116-12.052-27.116a14.153 14.153 0 01-1.212-5.707c0-2.728 1.582-5.115 3.849-5.806 1.842-.57 3.742-.263 5.21.825a5.638 5.638 0 012.31 4.574c0 2.28-1.462 3.034-2.091 3.253-.977.341-1.906.145-2.204-.237-.254-.322-.227-1.203.681-2.632a1.893 1.893 0 00-.577-2.616 1.906 1.906 0 00-2.616.582c-2.42 3.794-1.129 6.169-.461 7.017 1.372 1.732 3.953 2.328 6.421 1.465.281-.097.566-.218.847-.361v4.792l-.003-.003a1.894 1.894 0 00-3.786.11c0 1.236.864 3.38 3.789 4.044v3.535c0 1.047.847 1.895 1.895 1.895s1.895-.847 1.895-1.895v-3.535c2.925-.664 3.789-2.808 3.789-4.044 0-1.047-.845-1.957-1.891-1.957-1.047 0-1.891.785-1.891 1.832l-.008.011v-4.783c.281.143.566.264.847.361 2.468.862 5.048.266 6.421-1.465.668-.847 1.96-3.223-.461-7.017a1.9 1.9 0 00-2.616-.582 1.893 1.893 0 00-.577 2.616c.908 1.429.935 2.31.681 2.632-.3.381-1.229.577-2.204.237-.629-.218-2.091-.973-2.091-3.253 0-1.821.842-3.49 2.31-4.574 1.471-1.088 3.375-1.399 5.21-.825 2.266.692 3.849 3.079 3.849 5.806a14.08 14.08 0 01-1.211 5.705zm0-27.386a14.153 14.153 0 011.212 5.707c0 2.728-1.582 5.114-3.849 5.806-1.839.574-3.742.263-5.21-.825a5.638 5.638 0 01-2.31-4.574c0-2.28 1.462-3.034 2.091-3.253.975-.341 1.905-.145 2.204.237.254.322.227 1.203-.681 2.632a1.893 1.893 0 103.193 2.034c2.42-3.794 1.129-6.169.461-7.017-1.373-1.732-3.953-2.321-6.421-1.465a6.832 6.832 0 00-.847.361v-4.793l.003.006a1.895 1.895 0 003.786-.111c0-1.236-.864-3.38-3.789-4.044v-3.535c0-1.047-.847-1.895-1.895-1.895s-1.895.847-1.895 1.895v3.535c-2.925.664-3.789 2.808-3.789 4.044 0 1.047.845 1.957 1.891 1.957 1.047 0 1.891-.785 1.891-1.832.001-.003.007-.008.007-.008l.001 4.78a6.684 6.684 0 00-.847-.361c-2.468-.855-5.049-.266-6.421 1.465-.668.847-1.96 3.223.461 7.017a1.903 1.903 0 002.616.582 1.893 1.893 0 00.577-2.616c-.908-1.429-.935-2.31-.681-2.632.298-.381 1.227-.577 2.204-.237.629.218 2.091.973 2.091 3.253 0 1.821-.842 3.49-2.31 4.574-1.471 1.088-3.371 1.399-5.21.825-2.266-.692-3.849-3.079-3.849-5.806 0-1.951.418-3.923 1.212-5.707l12.052-27.116 12.051 27.117zm-10.162-43.152a9.406 9.406 0 00-1.889 1.981 9.405 9.405 0 00-1.889-1.981 9.406 9.406 0 001.889-1.981 9.404 9.404 0 001.889 1.981zm10.162-43.153l-12.052 27.116-12.052-27.116a14.153 14.153 0 01-1.212-5.707c0-2.728 1.582-5.114 3.849-5.806 1.842-.57 3.742-.263 5.21.825a5.638 5.638 0 012.31 4.574c0 2.28-1.462 3.034-2.091 3.253-.977.344-1.906.145-2.204-.237-.254-.322-.227-1.203.681-2.632a1.893 1.893 0 00-.577-2.616 1.9 1.9 0 00-2.616.582c-2.42 3.794-1.129 6.169-.461 7.017 1.372 1.732 3.953 2.324 6.421 1.465.281-.097.566-.218.847-.361v4.792l-.003-.006a1.895 1.895 0 00-3.786.111c0 1.236.864 3.38 3.789 4.044v3.535c0 1.047.847 1.895 1.895 1.895s1.895-.847 1.895-1.895v-3.535c2.925-.664 3.789-2.808 3.789-4.044 0-1.047-.845-1.958-1.891-1.958-1.047 0-1.891.785-1.891 1.832-.001.003-.007.008-.007.008l-.001-4.78c.281.143.566.264.847.361 2.468.858 5.048.266 6.421-1.465.668-.847 1.96-3.223-.461-7.017a1.894 1.894 0 10-3.193 2.034c.908 1.429.935 2.31.681 2.632-.3.381-1.229.582-2.204.237-.629-.218-2.091-.973-2.091-3.253 0-1.821.842-3.49 2.31-4.574 1.471-1.088 3.375-1.395 5.21-.825 2.266.692 3.849 3.079 3.849 5.806a14.087 14.087 0 01-1.211 5.708zm0-27.387a14.153 14.153 0 011.212 5.707c0 2.728-1.582 5.114-3.849 5.806-1.839.574-3.742.263-5.21-.825a5.638 5.638 0 01-2.31-4.574c0-2.28 1.462-3.034 2.091-3.253.975-.341 1.905-.145 2.204.237.254.322.227 1.203-.681 2.632a1.893 1.893 0 103.193 2.034c2.42-3.794 1.129-6.169.461-7.017-1.373-1.732-3.953-2.324-6.421-1.465a6.684 6.684 0 00-.847.361v-4.792l.003.003a1.894 1.894 0 003.786-.11c0-1.236-.864-3.38-3.789-4.044v-3.535c0-1.047-.847-1.895-1.895-1.895s-1.895.847-1.895 1.895v3.535c-2.925.664-3.789 2.808-3.789 4.044 0 1.047.845 1.958 1.891 1.958 1.047 0 1.891-.785 1.891-1.832l.008-.011v4.783a6.684 6.684 0 00-.847-.361c-2.468-.858-5.049-.266-6.421 1.465-.668.847-1.96 3.223.461 7.017a1.903 1.903 0 002.616.582 1.893 1.893 0 00.577-2.616c-.908-1.429-.935-2.31-.681-2.632.298-.381 1.227-.577 2.204-.237.629.218 2.091.973 2.091 3.253 0 1.821-.842 3.49-2.31 4.574-1.471 1.088-3.371 1.399-5.21.825-2.266-.692-3.849-3.079-3.849-5.806 0-1.951.418-3.923 1.212-5.707l12.052-27.116 12.051 27.117zm-13.941-43.152a9.406 9.406 0 001.889-1.981 9.405 9.405 0 001.889 1.981 9.406 9.406 0 00-1.889 1.981 9.356 9.356 0 00-1.889-1.981z"/><circle cx="270.74" cy="235.03" r="45.606"/><path d="M274.167 176.883a3.421 3.421 0 01-6.842 0c0-1.889 3.421-10.262 3.421-10.262s3.421 8.373 3.421 10.262zM267.326 293.186a3.421 3.421 0 016.842 0c0 1.889-3.421 10.262-3.421 10.262s-3.421-8.372-3.421-10.262zM328.898 238.455a3.421 3.421 0 010-6.842c1.889 0 10.262 3.421 10.262 3.421s-8.373 3.421-10.262 3.421zM212.595 231.614a3.421 3.421 0 010 6.842c-1.889 0-10.262-3.421-10.262-3.421s8.373-3.421 10.262-3.421zM314.285 196.334a3.42 3.42 0 11-4.838-4.838c1.336-1.337 9.675-4.838 9.675-4.838s-3.5 8.34-4.837 9.676zM227.209 273.735a3.42 3.42 0 114.838 4.838c-1.336 1.337-9.675 4.837-9.675 4.837s3.501-8.338 4.837-9.675zM309.448 278.573a3.42 3.42 0 114.838-4.838c1.337 1.336 4.838 9.675 4.838 9.675s-8.34-3.502-9.676-4.837zM232.046 191.496a3.42 3.42 0 11-4.838 4.838c-1.337-1.336-4.838-9.675-4.838-9.675s8.34 3.502 9.676 4.837zM251.654 180a3.42 3.42 0 11-6.321 2.617c-.723-1.746-.767-10.79-.767-10.79s6.365 6.427 7.088 8.173zM289.841 290.069a3.42 3.42 0 116.321-2.617c.723 1.746.767 10.79.767 10.79s-6.366-6.427-7.088-8.173zM325.781 215.942a3.42 3.42 0 11-2.617-6.321c1.746-.723 10.789-.767 10.789-.767s-6.426 6.364-8.172 7.088zM215.713 254.127a3.42 3.42 0 112.617 6.321c-1.746.723-10.79.767-10.79.767s6.427-6.364 8.173-7.088zM296.161 182.618a3.421 3.421 0 01-6.321-2.617c.723-1.745 7.087-8.172 7.087-8.172s-.043 9.044-.766 10.789zM245.333 287.451a3.421 3.421 0 016.321 2.617c-.723 1.746-7.087 8.172-7.087 8.172s.043-9.043.766-10.789zM323.164 260.448a3.421 3.421 0 012.617-6.321c1.745.722 8.172 7.087 8.172 7.087s-9.045-.042-10.789-.766zM218.33 209.621a3.421 3.421 0 01-2.617 6.321c-1.745-.723-8.172-7.087-8.172-7.087s9.045.042 10.789.766zM262.758 177.333a3.42 3.42 0 01-2.688 4.022 3.42 3.42 0 01-4.022-2.688c-.369-1.853 1.353-10.732 1.353-10.732s4.988 7.545 5.357 9.398zM278.737 292.736a3.42 3.42 0 012.688-4.022 3.419 3.419 0 014.022 2.688c.369 1.853-1.353 10.732-1.353 10.732s-4.989-7.545-5.357-9.398zM328.449 227.044a3.42 3.42 0 01-4.022-2.688 3.419 3.419 0 012.688-4.022c1.853-.369 10.732 1.353 10.732 1.353s-7.545 4.989-9.398 5.357zM213.045 243.025a3.42 3.42 0 014.022 2.688 3.419 3.419 0 01-2.688 4.022c-1.853.369-10.732-1.353-10.732-1.353s7.545-4.989 9.398-5.357zM305.899 188.584a3.42 3.42 0 11-5.688-3.802c1.049-1.571 8.545-6.632 8.545-6.632s-1.808 8.862-2.857 10.434zM235.595 281.485a3.42 3.42 0 115.688 3.802c-1.049 1.571-8.545 6.632-8.545 6.632s1.808-8.862 2.857-10.434zM317.198 270.186a3.42 3.42 0 113.802-5.688c1.571 1.049 6.632 8.545 6.632 8.545s-8.863-1.808-10.434-2.857zM224.296 199.883a3.42 3.42 0 11-3.802 5.688c-1.571-1.05-6.632-8.545-6.632-8.545s8.864 1.808 10.434 2.857zM241.283 184.782a3.422 3.422 0 01-5.688 3.802c-1.049-1.571-2.857-10.433-2.857-10.433s7.496 5.061 8.545 6.631zM300.21 285.287a3.422 3.422 0 01.943-4.745 3.422 3.422 0 014.745.943c1.049 1.571 2.857 10.433 2.857 10.433s-7.495-5.061-8.545-6.631zM320.999 205.571a3.422 3.422 0 01-4.745-.943 3.422 3.422 0 01.943-4.745c1.571-1.049 10.433-2.857 10.433-2.857s-5.06 7.496-6.631 8.545zM220.495 264.498a3.422 3.422 0 014.745.943 3.422 3.422 0 01-.943 4.745c-1.571 1.049-10.433 2.857-10.433 2.857s5.06-7.496 6.631-8.545zM285.447 178.667a3.42 3.42 0 11-6.71-1.334c.369-1.853 5.357-9.398 5.357-9.398s1.721 8.879 1.353 10.732zM256.047 291.402a3.42 3.42 0 116.71 1.334c-.369 1.853-5.357 9.398-5.357 9.398s-1.721-8.879-1.353-10.732zM327.114 249.735a3.42 3.42 0 111.334-6.71c1.853.369 9.398 5.357 9.398 5.357s-8.879 1.721-10.732 1.353zM214.38 220.334a3.42 3.42 0 11-1.334 6.71c-1.853-.369-9.398-5.357-9.398-5.357s8.879-1.721 10.732-1.353z"/><path d="M378.027 247.034a2.615 2.615 0 00-3.42 1.41v.006l-.151.358c-1.977 4.618-6.067 11.367-10.197 17.716 3.847-12.383 7.364-25.609 7.609-26.539a2.615 2.615 0 00-5.048-1.374c-1.795 6.432-5.466 14.897-8.853 22.063.621-7.99.738-15.392.746-15.928a2.62 2.62 0 00-2.503-2.652c-1.331.041-2.615 1.012-2.72 2.426-3.349 46.068-47.678 66.676-51.994 68.572-2.258.225-12.777 1.41-22.324 4.725-1.082.376-2.004.753-2.922 1.127a2.642 2.642 0 00-1.092-.177c-29.302 2.12-52.666-9.9-69.458-35.652-12.687-19.458-16.666-39.882-16.705-40.086-.268-1.42-1.628-2.335-3.054-2.084a2.613 2.613 0 00-2.084 3.054c.106.564 1.852 9.479 6.66 21.212-6.433-10.155-10.916-22.457-12.494-28.864-.032-.128-.114-.225-.162-.343-.074-.181-.136-.363-.245-.52-.077-.111-.178-.192-.269-.289-.143-.151-.28-.299-.455-.412-.1-.065-.212-.097-.321-.148-.193-.09-.382-.179-.597-.22-.149-.029-.301-.01-.456-.013-.157-.002-.305-.042-.466-.014-.035.006-.062.03-.097.038-.034.007-.066-.004-.1.003-.14.034-.247.122-.375.177-.163.071-.33.124-.473.223-.141.097-.246.223-.363.344-.117.12-.239.226-.331.365-.093.141-.143.3-.209.457-.063.153-.136.297-.169.462-.034.169-.019.343-.018.52 0 .141-.039.276-.014.42.01.062.03.124.041.184v.01l.01.038c1.618 9.533 5.474 19.415 8.961 26.951-5.537-6.283-10.164-13.522-11.804-17.809-.047-.125-.142-.212-.206-.324-.097-.173-.182-.35-.313-.493-.093-.102-.206-.168-.312-.253-.159-.128-.31-.257-.494-.345-.118-.056-.246-.074-.371-.113-.193-.058-.38-.122-.585-.135-.161-.011-.321.03-.484.051-.151.019-.3 0-.45.047-.029.009-.049.032-.076.042-.028.009-.056.003-.084.014-.142.054-.243.159-.37.234-.149.088-.308.161-.435.275-.13.117-.22.262-.322.401-.097.131-.205.248-.277.394-.075.153-.103.319-.146.484-.043.161-.1.311-.111.48-.012.169.03.338.052.509.019.148-.001.295.045.441 2.846 9.18 9.69 20.102 15.052 27.796-4.468-3.443-7.752-7.167-8.705-8.291l-.307-.367a2.613 2.613 0 00-4.056 3.299c.049.062.245.307.573.69 3.924 4.669 8.199 9.026 12.072 12.705l-5.298-2.258a2.616 2.616 0 00-2.592 4.5c.516.383 9.898 7.392 18.02 11.535-.766.046-1.665-.01-2.671-.087-1.228-.118-2.436.761-2.735 2.007a2.615 2.615 0 001.548 3.019c.2.082 2.675 1.103 5.731 2.191a2.611 2.611 0 00-1.515 1.665 2.61 2.61 0 001.195 3.019c.274.159 3.971 2.279 8.546 4.158a2.619 2.619 0 00.707 3.581c.794.546 18.559 12.602 39.307 12.602 1.362 0 2.738-.051 4.122-.163 1.438-.113 2.514-1.374 2.399-2.815s-1.364-2.529-2.817-2.396c-13.034 1.063-25.591-3.831-33.059-7.571.986-.241 1.553-.46 1.694-.516a2.617 2.617 0 00-.93-5.043c-3.032-.062-7.231-1.538-10.848-3.122 1.366-.684 2.164-1.339 2.234-1.395a2.626 2.626 0 00.851-2.702 2.617 2.617 0 00-2.104-1.89c-1.111-.184-2.496-.542-3.946-.981 1.41-.812 2.01-1.706 2.24-2.161a2.622 2.622 0 00.023-2.304 2.608 2.608 0 00-1.809-1.426c-.684-.148-1.459-.398-2.296-.725a2.622 2.622 0 00-.235-3.918c-.054-.041-2.084-1.634-5.158-4.286a2.59 2.59 0 001.231-.96 2.61 2.61 0 00-.11-3.122c-.058-.072-2.091-2.628-4.893-6.51.925.718 1.849 1.452 2.773 2.046.435.276.927.414 1.415.414.662 0 1.315-.25 1.818-.736.207-.2.369-.43.497-.675 1.587 1.695 3.254 3.234 5.005 4.547.228.171.505.168.761.254.742 1.244 1.514 2.49 2.324 3.736 15.883 24.438 38.278 37.528 65.138 38.314-2.473 1.502-5.158 3.054-9.409 4.71-.928.362-1.748.724-2.572 1.087-.398.078-.771.222-1.082.469-7.42 3.435-10.492 6.829-11.738 9.203-1.244 2.36-.171 4.781 1.348 6.038a2.643 2.643 0 001.675.587c.414 0 .828-.092 1.203-.281.925-.46 1.543-1.436 1.502-2.462.107-.117.562-.495 1.987-.542 1.039-.087 3.226.148 5.778.352 2.428.2 5.34.427 8.436.586-1.937 2.258-4.188 4.875-4.188 4.875a2.613 2.613 0 00-.375 2.835 2.629 2.629 0 002.447 1.486 333.16 333.16 0 014.393-.132 4.437 4.437 0 002.427 1.634c1.799.46 3.592-.26 4.942-1.113a6.461 6.461 0 002.854 1.165c1.826.25 3.517-.281 4.74-.884a6.303 6.303 0 003.454 1.027h.043c2.041-.01 3.827-.996 5.09-1.962a6.424 6.424 0 003.009.915c1.873.066 3.425-.654 4.457-1.329 3.686.74 6.863-.996 8.963-2.912.958.557 1.869.695 2.595.659 1.867-.066 3.289-1.201 4.202-2.217 4.179.505 7.178-.266 8.911-2.324.945-1.119 1.329-2.38 1.433-3.53 11.594-.066 12.643-6.396 12.728-7.178a2.61 2.61 0 00-.602-1.966 2.609 2.609 0 00-1.839-.925l-30.396-1.828a2.59 2.59 0 00-2.702 2.003c-.006.02-.524 1.951-2.145 3.495-2.182 2.083-5.695 3.183-9.516 3.766a2.62 2.62 0 00-.169-1.054c-.521-1.348-2.038-2.003-3.382-1.496-6.275 2.435-16.435 2.129-24.383 1.576 1.219-.996 2.687-1.983 3.86-2.627a2.619 2.619 0 001.313-2.778c-.152-.809-.737-1.372-1.443-1.734 2.21-1.116 4.022-2.194 5.741-3.242 2.984-1.828 5.803-3.551 10.937-5.333 9.91-3.443 21.379-4.49 21.494-4.501.26-.021.516-.087.758-.184.408-.169 32.758-13.721 47.999-44.991a29.64 29.64 0 01-.647 2.564 2.618 2.618 0 004.276 2.692c-.963 2.539-1.834 4.536-2.545 5.716a2.62 2.62 0 001.66 3.908 82.582 82.582 0 01-3.569 4.858 2.618 2.618 0 00.082 3.357c-2.048 2.145-3.864 3.913-5.244 5.037a2.615 2.615 0 00-.781 2.994c-1.331.761-2.424 1.298-3.182 1.527a2.613 2.613 0 00-.764 4.628 81.384 81.384 0 01-5.249 1.22 2.617 2.617 0 00-.787 4.837c.082.046.975.552 2.343 1.134-5.06 2.038-14.094 4.7-28.919 6.161a2.618 2.618 0 00-2.345 2.861c.14 1.436 1.382 2.432 2.861 2.35 28.142-2.784 36.832-9.828 37.187-10.13.812-.68 1.134-1.788.812-2.799a2.612 2.612 0 00-1.288-1.523c8.991-2.83 12.851-5.962 13.053-6.13a2.62 2.62 0 00.585-3.341c-.654-1.109-2.015-1.589-3.203-1.109-.334.128-.868.26-1.543.393 6.034-4.132 12.439-9.053 15.256-11.249a28.78 28.78 0 001.341-1.053 2.612 2.612 0 00.344-3.652 2.62 2.62 0 00-3.648-.404c-.408.322-.833.654-1.272.996-1.3.966-2.963 2.059-4.777 3.182 6.848-7.775 13.742-16.204 15.711-18.625l.534-.659a2.613 2.613 0 00-.396-3.673 2.607 2.607 0 00-3.676.388l-.006.006-.002.006c-.049.056-.27.332-.643.792a141.316 141.316 0 01-6.378 7.233c6.976-12.643 12.258-25.088 13.032-26.932l.082-.2a2.606 2.606 0 00-1.41-3.408zm-122.59 88.167l.714.093a12.307 12.307 0 00-2.155 2.685 98.12 98.12 0 00-3.252-.227c1.217-.795 2.783-1.658 4.693-2.551z"/></g></symbol><symbol viewBox="0 0 512.001 512.001" id="kyrgyzstan" xmlns="http://www.w3.org/2000/svg"><path d="M503.172 423.725H8.828A8.829 8.829 0 010 414.897V97.104a8.829 8.829 0 018.828-8.828h494.345a8.829 8.829 0 018.828 8.828v317.793a8.83 8.83 0 01-8.829 8.828z" fill="#ff4b55"/><g fill="#ffe15a"><path d="M349.373 282.328s-17.586-2.932-30.613-13.735c-3.843-3.187-9.42-5.622-14.852-7.422 4.367-.194 8.999-.072 13.376.813 18.132 3.666 35.713-5.135 35.713-5.135s-17.739 1.79-33.145-5.213c-4.167-1.894-9.571-2.786-14.846-3.162 3.794-1.091 7.82-1.945 11.795-2.165 18.471-1.024 33.265-13.973 33.265-13.973s-16.714 6.204-33.388 3.311c-4.856-.843-10.817-.212-16.364.903 3.649-2.292 7.667-4.434 11.836-5.813 17.562-5.811 28.462-22.174 28.462-22.174s-14.515 10.353-31.366 11.914c-5.004.463-10.703 2.71-15.846 5.297 2.967-3.253 6.354-6.473 10.104-8.961 15.413-10.229 21.622-28.884 21.622-28.884s-11.277 13.809-27.124 19.751c-4.32 1.62-8.797 4.864-12.818 8.36 1.922-3.494 4.181-6.989 6.865-9.991 12.329-13.791 13.622-33.409 13.622-33.409s-7.423 16.21-21.253 25.963c-4.032 2.844-7.8 7.512-10.934 12.23.958-4.206 2.281-8.568 4.254-12.499 8.299-16.533 4.424-35.808 4.424-35.808s-2.932 17.586-13.735 30.613c-3.187 3.843-5.622 9.42-7.422 14.854-.194-4.367-.072-8.999.813-13.376 3.666-18.132-5.135-35.713-5.135-35.713s1.79 17.739-5.214 33.145c-1.894 4.167-2.786 9.571-3.162 14.846-1.091-3.794-1.945-7.82-2.165-11.795-1.024-18.471-13.973-33.265-13.973-33.265s6.204 16.714 3.311 33.388c-.843 4.856-.212 10.817.903 16.365-2.292-3.649-4.434-7.667-5.813-11.837-5.811-17.562-22.174-28.462-22.174-28.462s10.353 14.515 11.914 31.366c.463 5.004 2.71 10.705 5.298 15.847-3.253-2.967-6.473-6.354-8.962-10.105-10.229-15.413-28.884-21.621-28.884-21.621s13.809 11.277 19.751 27.124c1.62 4.32 4.864 8.798 8.36 12.818-3.494-1.922-6.989-4.181-9.991-6.865-13.791-12.329-33.409-13.622-33.409-13.622s16.21 7.423 25.963 21.254c2.842 4.031 7.511 7.8 12.227 10.934-4.205-.958-8.567-2.281-12.497-4.254-16.533-8.299-35.808-4.424-35.808-4.424s17.586 2.932 30.613 13.735c3.843 3.187 9.42 5.622 14.854 7.422-4.367.194-8.999.072-13.376-.813-18.132-3.666-35.713 5.135-35.713 5.135s17.739-1.79 33.145 5.214c4.167 1.894 9.571 2.786 14.846 3.162-3.794 1.091-7.82 1.945-11.795 2.165-18.471 1.024-33.265 13.973-33.265 13.973s16.714-6.204 33.388-3.311c4.856.843 10.817.212 16.365-.903-3.649 2.292-7.667 4.434-11.837 5.813-17.562 5.811-28.462 22.174-28.462 22.174s14.515-10.353 31.366-11.914c5.004-.463 10.705-2.71 15.847-5.298-2.967 3.253-6.354 6.473-10.105 8.962-15.413 10.229-21.622 28.884-21.622 28.884s11.277-13.809 27.124-19.751c4.319-1.62 8.797-4.864 12.817-8.36-1.921 3.493-4.181 6.989-6.863 9.99-12.329 13.791-13.622 33.409-13.622 33.409s7.423-16.21 21.254-25.963c4.032-2.844 7.8-7.512 10.934-12.228-.958 4.206-2.281 8.567-4.254 12.498-8.299 16.533-4.424 35.808-4.424 35.808s2.932-17.586 13.735-30.613c3.187-3.843 5.622-9.42 7.422-14.854.194 4.369.072 9-.813 13.377-3.666 18.132 5.135 35.712 5.135 35.712s-1.79-17.738 5.214-33.144c1.894-4.167 2.786-9.572 3.162-14.846 1.091 3.794 1.945 7.82 2.165 11.795 1.024 18.471 13.973 33.265 13.973 33.265s-6.204-16.715-3.311-33.388c.843-4.856.212-10.817-.903-16.364 2.292 3.649 4.434 7.666 5.813 11.836 5.811 17.562 22.174 28.462 22.174 28.462s-10.353-14.515-11.914-31.367c-.463-5.004-2.71-10.705-5.298-15.847 3.253 2.967 6.473 6.354 8.962 10.105 10.229 15.413 28.884 21.622 28.884 21.622s-13.809-11.277-19.751-27.124c-1.62-4.319-4.864-8.797-8.36-12.817 3.493 1.921 6.988 4.181 9.99 6.863 13.791 12.329 33.409 13.622 33.409 13.622s-16.21-7.423-25.963-21.254c-2.844-4.032-7.512-7.801-12.23-10.934 4.206.958 8.567 2.281 12.498 4.254 16.532 8.298 35.807 4.423 35.807 4.423zm-93.394 18.497c-24.753 0-44.819-20.066-44.819-44.819s20.066-44.819 44.819-44.819 44.819 20.066 44.819 44.819-20.066 44.819-44.819 44.819z"/><path d="M241.769 237.868c.956-.746 1.907-1.495 2.873-2.161-6.35-2.888-12.066-4.275-16.076-4.896-.638.694-1.214 1.439-1.799 2.179 3.938.765 9.229 2.225 15.002 4.878zM230.494 228.833c4.309.487 10.547 1.77 17.468 4.747a60.092 60.092 0 013.47-1.895c-7.473-3.068-14.219-4.211-18.862-4.564-.698.566-1.422 1.098-2.076 1.712zM252.932 249.607a55.126 55.126 0 00-2.712-2.398c-8.391 7.986-15.732 19.633-19.046 36.532 1.205 1.078 2.401 2.168 3.738 3.085 2.435-17.187 9.572-29.05 18.02-37.219zM249.678 242.184c.951-.765 1.901-1.533 2.865-2.217-1.174-.749-2.344-1.407-3.51-2.048-.999.684-1.999 1.346-2.986 2.115a63.966 63.966 0 013.631 2.15zM272.866 240.02c7.194 6.319 13.77 15.217 18.449 27.553 1.201-3.663 2.013-7.503 2.013-11.567a37.169 37.169 0 00-6.354-20.835c-3.71.738-8.691 2.18-14.108 4.849zM253.202 244.585c.937.696 1.855 1.482 2.777 2.255.921-.774 1.839-1.559 2.777-2.255-.922-.768-1.842-1.524-2.777-2.214-.935.691-1.854 1.446-2.777 2.214zM255.979 233.77a62.75 62.75 0 00-3.527 1.964 60.658 60.658 0 013.527 2.004 62.193 62.193 0 013.527-2.004 62.124 62.124 0 00-3.527-1.964zM227.104 279.427c3.951-16.135 11.399-27.189 19.734-34.793a55.57 55.57 0 00-3.49-2.276c-8.021 7.053-15.279 17.245-19.751 31.929a37.037 37.037 0 003.507 5.14zM239.092 240.02c-5.417-2.67-10.398-4.11-14.109-4.85a37.169 37.169 0 00-6.354 20.835c0 4.064.812 7.904 2.013 11.567 4.68-12.336 11.255-21.233 18.45-27.552zM255.979 229.579c7.946-3.283 15.276-4.449 20.489-4.757-5.887-3.876-12.914-6.165-20.489-6.165s-14.602 2.29-20.489 6.165c5.213.308 12.543 1.473 20.489 4.757zM255.979 252.766c-7.449 8.255-13.597 20.107-15.592 37.081 4.758 2.198 10.007 3.508 15.592 3.508 5.586 0 10.834-1.31 15.592-3.508-1.995-16.973-8.143-28.826-15.592-37.081zM268.61 242.358a57.085 57.085 0 00-3.49 2.276c8.334 7.603 15.783 18.658 19.734 34.793a37.096 37.096 0 003.507-5.14c-4.471-14.683-11.73-24.876-19.751-31.929zM280.783 283.741c-3.314-16.899-10.655-28.545-19.046-36.532a54.67 54.67 0 00-2.712 2.398c8.448 8.169 15.585 20.032 18.019 37.218 1.338-.916 2.534-2.006 3.739-3.084zM260.526 231.684a60.37 60.37 0 013.47 1.895c6.921-2.977 13.159-4.26 17.468-4.747-.654-.614-1.378-1.146-2.076-1.713-4.643.355-11.389 1.498-18.862 4.565zM262.28 242.184a64.564 64.564 0 013.631-2.15c-.986-.769-1.987-1.431-2.986-2.115-1.166.642-2.335 1.299-3.51 2.048.963.684 1.914 1.453 2.865 2.217zM270.189 237.868c5.773-2.653 11.064-4.113 15-4.877-.585-.74-1.16-1.486-1.799-2.179-4.01.621-9.726 2.007-16.076 4.896.968.664 1.92 1.414 2.875 2.16z"/></g></symbol><symbol viewBox="0 0 477.867 477.867" id="logout" xmlns="http://www.w3.org/2000/svg"><path d="M426.657 0H204.79c-28.277 0-51.2 22.923-51.2 51.2v102.4c0 9.426 7.641 17.067 17.067 17.067s17.067-7.641 17.067-17.067V51.2c0-9.426 7.641-17.067 17.067-17.067h221.867c9.426 0 17.067 7.641 17.067 17.067v375.467c0 9.426-7.641 17.067-17.067 17.067H204.79c-9.426 0-17.067-7.641-17.067-17.067v-102.4c0-9.426-7.641-17.067-17.067-17.067s-17.067 7.641-17.067 17.067v102.4c0 28.277 22.923 51.2 51.2 51.2h221.867c28.277 0 51.2-22.923 51.2-51.2V51.2C477.857 22.923 454.934 0 426.657 0z"/><path d="M341.323 221.867H58.256l56.201-56.201c6.548-6.78 6.36-17.584-.42-24.132-6.614-6.387-17.099-6.387-23.712 0L4.991 226.867a16.872 16.872 0 00-3.686 5.547 17.064 17.064 0 000 13.039 16.913 16.913 0 003.703 5.564l85.333 85.333c6.548 6.78 17.352 6.968 24.132.42 6.78-6.548 6.968-17.352.42-24.132a16.632 16.632 0 00-.42-.42L58.256 256h283.068c9.426 0 17.067-7.641 17.067-17.067s-7.642-17.066-17.068-17.066z"/></symbol><symbol viewBox="0 0 512 512" id="russia" xmlns="http://www.w3.org/2000/svg"><path fill="#f0f0f0" d="M0 85.33v341.332h512V85.33z"/><path fill="#0052b4" d="M0 85.333h512V426.67H0z"/><path fill="#f0f0f0" d="M0 85.333h512v113.775H0z"/><path fill="#d80027" d="M0 312.884h512v113.775H0z"/></symbol><symbol viewBox="0 0 512 512" id="ukraine" xmlns="http://www.w3.org/2000/svg"><path fill="#ffda44" d="M0 85.337h512v341.326H0z"/><path fill="#338af3" d="M0 85.337h512V256H0z"/></symbol><symbol viewBox="0 0 31.479 31.479" id="up-arrow" xmlns="http://www.w3.org/2000/svg"><path d="M26.477 10.274a1.112 1.112 0 010 1.587 1.12 1.12 0 01-1.571 0l-8.047-8.047v26.555c0 .619-.492 1.111-1.111 1.111a1.118 1.118 0 01-1.127-1.111V3.813L6.59 11.86c-.444.429-1.159.429-1.587 0a1.112 1.112 0 010-1.587L14.955.321a1.12 1.12 0 011.571 0l9.951 9.953z" fill="#1e201d"/></symbol></svg>