<?xml version="1.0" encoding="iso-8859-1"?><svg xmlns="http://www.w3.org/2000/svg" xmlns:xlink="http://www.w3.org/1999/xlink"><symbol viewBox="0 0 512 512" id="clean" xmlns="http://www.w3.org/2000/svg"><path d="M490.372 262.642a8.149 8.149 0 00-7.7-.687c-25.746 11.034-39.341 11.359-55.955 1.341-19.123-11.53-141.613-144.691-141.613-144.691-8.109-8.11-18.892-12.577-30.362-12.577-11.469 0-22.252 4.467-30.362 12.576l-43.43 43.431-28.825-28.826a8.153 8.153 0 00-11.529 11.53l28.825 28.825-37.664 37.664L20.685 100.16c-3.602-3.602-3.602-9.466 0-13.067l24.598-24.598c3.561-3.561 9.506-3.56 13.067.001l56.159 56.159a8.153 8.153 0 0011.529-11.53L69.88 50.965c-4.825-4.826-11.24-7.483-18.065-7.483-6.823 0-13.238 2.657-18.063 7.482L9.155 75.562c-9.96 9.96-9.96 26.166 0 36.127l111.071 111.07-43.429 43.429c-8.11 8.11-12.576 18.894-12.576 30.363 0 11.469 4.466 22.252 12.576 30.362 0 0 57.524 57.38 67.084 66.814 3.387 3.342 9.062 3.01 12.06-.671 2.615-3.211 2.338-8.031-.606-10.937-8.916-8.797-18.482-18.255-36.64-36.38l42.754-42.754 27.156 27.156c3.315 3.314 8.915 3.093 11.963-.469 2.733-3.192 2.535-8.094-.434-11.063l-27.154-27.155 34.882-34.882 45.059 45.059c3.316 3.314 8.915 3.093 11.963-.469 2.733-3.192 2.535-8.094-.434-11.063l-45.059-45.059 36.779-36.779 24.981 24.982c3.315 3.314 8.915 3.093 11.963-.469 2.733-3.192 2.535-8.094-.434-11.063l-24.98-24.979 35.713-35.713c10.829 11.854 20.791 22.865 29.649 32.658 39.943 44.156 64.051 70.808 85.234 83.581 20.329 12.258 38.255 11.49 58.695 4.414-1.945 16.423-7.582 32.726-15.021 48.024-.044.05-.091.096-.134.148-2.873 1.987-17.693 6.957-34.252 1.438-23.815-7.939-40.144-23.968-40.306-24.129a8.15 8.15 0 00-11.519.01 8.153 8.153 0 000 11.53c.766.765 19.071 18.859 46.669 28.059 7.006 2.335 14.179 3.317 20.908 3.317 2.644 0 5.214-.159 7.682-.439-13.239 21.672-28.705 40.071-39.738 52.047a8.145 8.145 0 00-2.513-.795c-5.389-.77-16.647-3.674-31.51-14.47-8.633-6.271-30.072-26.96-30.287-27.168a8.15 8.15 0 00-11.528.199 8.152 8.152 0 00.198 11.527c.913.884 22.482 21.696 32.036 28.635 12.029 8.737 22.374 13.258 30.374 15.572-12.564 11.695-31.731 25.789-54.102 36.749-4.575-1.822-14.615-6.62-27.224-17.453-11.192-9.617-25.072-22.935-25.211-23.068a8.153 8.153 0 00-11.527.233 8.15 8.15 0 00.232 11.527c.58.558 14.339 13.76 25.88 23.675 6.822 5.861 13.062 10.213 18.384 13.427a178.916 178.916 0 01-8.942 3.027c-27.423 8.452-66.085 12.55-94.552-15.919a17602.143 17602.143 0 00-34.762-34.682 8.153 8.153 0 00-11.497 11.562c8.73 8.68 19.781 19.701 34.73 34.651 17.955 17.954 40.857 27.039 67.51 27.038 13.542-.001 28.057-2.347 43.374-7.068 9.141-2.818 18.041-6.343 26.553-10.314a8.218 8.218 0 002.187-1.025c27.503-13.175 50.715-30.905 64.296-44.484 24.251-24.252 80.656-87.764 80.656-153.604a8.152 8.152 0 00-3.663-6.807zm-239.966-71.674l-.001.001-.001.001-143.245 143.245-18.832-18.833c-5.03-5.03-7.801-11.717-7.801-18.831s2.77-13.802 7.801-18.832l147.582-147.582c5.03-5.031 11.718-7.802 18.832-7.802 7.114 0 13.802 2.771 18.832 7.802l18.832 18.831-41.999 42z"/><path d="M220.524 45.44a70.937 70.937 0 01-7.796-7.796c-7.534-8.819-12.803-19.377-15.661-31.379a8.154 8.154 0 00-15.862 0c-2.858 12.002-8.127 22.56-15.66 31.378a70.781 70.781 0 01-7.797 7.797c-3.747 3.203-3.747 9.187 0 12.39a70.937 70.937 0 017.796 7.796c7.534 8.819 12.803 19.377 15.661 31.379a8.154 8.154 0 0015.862 0c2.858-12.002 8.127-22.56 15.66-31.378a70.781 70.781 0 017.797-7.797c3.747-3.205 3.747-9.187 0-12.39zm-20.196 9.596a87.32 87.32 0 00-11.193 16.65 87.348 87.348 0 00-14.259-20.051 86.078 86.078 0 003.067-3.401 87.32 87.32 0 0011.193-16.65 87.348 87.348 0 0014.259 20.051 86.155 86.155 0 00-3.067 3.401zM507.505 454.17a70.937 70.937 0 01-7.796-7.796c-7.534-8.819-12.803-19.377-15.661-31.379a8.154 8.154 0 00-15.862 0c-2.858 12.002-8.127 22.56-15.66 31.378a70.781 70.781 0 01-7.797 7.797c-3.747 3.205-3.747 9.187 0 12.39a70.937 70.937 0 017.796 7.796c7.534 8.819 12.803 19.377 15.661 31.379a8.154 8.154 0 0015.862 0c2.858-12.002 8.127-22.56 15.66-31.378a70.781 70.781 0 017.797-7.797c3.746-3.203 3.746-9.186 0-12.39zm-20.195 9.597a87.32 87.32 0 00-11.193 16.65 87.348 87.348 0 00-14.259-20.051 88.505 88.505 0 003.067-3.401 87.32 87.32 0 0011.193-16.65 87.348 87.348 0 0014.259 20.051 84.682 84.682 0 00-3.067 3.401zM142.257 454.17a70.937 70.937 0 01-7.796-7.796c-7.534-8.819-12.803-19.377-15.661-31.379a8.154 8.154 0 00-15.862 0c-2.858 12.002-8.127 22.56-15.66 31.378a70.781 70.781 0 01-7.797 7.797c-3.747 3.205-3.747 9.187 0 12.39a70.937 70.937 0 017.796 7.796c7.534 8.819 12.803 19.377 15.661 31.379a8.154 8.154 0 0015.862 0c2.858-12.002 8.127-22.56 15.66-31.378a70.781 70.781 0 017.797-7.797c3.746-3.203 3.746-9.186 0-12.39zm-20.196 9.597a87.32 87.32 0 00-11.193 16.65 87.348 87.348 0 00-14.259-20.051 88.505 88.505 0 003.067-3.401 87.32 87.32 0 0011.193-16.65 87.348 87.348 0 0014.259 20.051 85.45 85.45 0 00-3.067 3.401z"/></symbol></svg>